<?xml version="1.0" standalone="no"?>
<!DOCTYPE svg PUBLIC "-//W3C//DTD SVG 20010904//EN"
 "http://www.w3.org/TR/2001/REC-SVG-20010904/DTD/svg10.dtd">
<svg version="1.0" xmlns="http://www.w3.org/2000/svg"
 width="512.000000pt" height="512.000000pt" viewBox="0 0 512.000000 512.000000"
 preserveAspectRatio="xMidYMid meet">
<metadata>
Created by potrace 1.11, written by Peter Selinger 2001-2013
</metadata>
<g transform="translate(0.000000,512.000000) scale(0.100000,-0.100000)"
fill="#000000" stroke="none">
<path d="M1766 3927 c-76 -133 -160 -278 -186 -322 -26 -44 -109 -188 -185
-320 -76 -132 -162 -280 -191 -330 -72 -124 -263 -453 -285 -492 l-19 -33 254
0 253 0 19 38 c10 20 24 44 30 52 6 8 25 40 41 70 17 30 66 116 110 191 44 74
82 143 86 153 8 20 -15 32 395 -204 l252 -145 0 -732 0 -733 438 0 437 0 110
192 c61 105 112 196 114 202 2 6 7 13 10 16 3 3 12 16 19 29 8 13 23 40 34 60
19 33 558 969 664 1152 24 42 44 80 44 85 0 7 -415 11 -486 5 -6 -1 -77 -118
-159 -260 l-148 -259 -51 29 c-28 16 -58 32 -66 36 -8 3 -31 16 -50 28 -19 12
-55 33 -80 47 -25 14 -85 49 -135 78 -160 94 -189 110 -222 127 -24 12 -33 24
-34 42 0 14 -1 344 -1 734 l-1 707 -436 0 -436 0 -139 -243z m569 -196 c11 -1
13 -747 2 -757 -6 -6 -61 23 -192 101 -44 26 -105 61 -135 78 -30 16 -74 42
-97 56 -40 25 -42 28 -29 51 7 14 60 106 118 205 57 99 115 199 128 222 14 25
32 43 44 45 18 3 131 2 161 -1z m705 -1551 c107 -62 198 -115 202 -119 4 -4
-20 -54 -53 -111 -34 -58 -70 -121 -81 -140 -34 -59 -141 -245 -144 -249 -5
-6 -174 -4 -181 3 -5 4 -8 744 -4 764 1 2 16 -5 34 -16 17 -11 120 -71 227
-132z"/>
</g>
</svg>
