<svg width="16" height="16" fill="none" xmlns="http://www.w3.org/2000/svg"><path d="M14.23 1.77A2.528 2.528 0 0 0 12.375 1h-8.75c-.723 0-1.341.257-1.855.77A2.529 2.529 0 0 0 1 3.625v8.75c0 .723.257 1.341.77 1.855.514.513 1.132.77 1.855.77h8.75c.723 0 1.341-.257 1.855-.77.513-.514.77-1.132.77-1.855v-8.75a2.53 2.53 0 0 0-.77-1.855zm-1.563 6.522a.545.545 0 0 1-.356.537.635.635 0 0 1-.228.046.542.542 0 0 1-.41-.173l-1.312-1.313-4.867 4.868a.561.561 0 0 1-.41.173.56.56 0 0 1-.41-.173l-.93-.93a.56.56 0 0 1-.174-.41.56.56 0 0 1 .174-.41L8.61 5.639 7.298 4.327c-.188-.176-.23-.389-.127-.638a.545.545 0 0 1 .537-.356h4.375c.158 0 .295.058.41.174a.56.56 0 0 1 .174.41v4.375z" fill="#FF543E"/></svg>