<svg xmlns="http://www.w3.org/2000/svg" fill="none" viewBox="0 0 16 17"><defs/><path fill="url(#paint0_linear)" d="M15.952 5.098c-.039-.852-.174-1.433-.372-1.942a3.92 3.92 0 00-.923-1.417A3.922 3.922 0 0013.24.816c-.509-.198-1.09-.333-1.942-.371C10.445.405 10.173.396 8 .396s-2.445.01-3.298.048C3.85.484 3.269.62 2.76.816a3.92 3.92 0 00-1.417.923c-.407.4-.722.883-.923 1.417-.198.509-.333 1.09-.372 1.942C.01 5.95 0 6.224 0 8.396c0 2.173.01 2.445.048 3.299.04.851.174 1.433.372 1.942.201.533.516 1.017.923 1.416.4.407.883.722 1.417.923.509.198 1.09.333 1.942.372.853.04 1.126.048 3.298.048 2.173 0 2.445-.009 3.299-.048.851-.039 1.432-.174 1.941-.372a4.09 4.09 0 002.34-2.34c.198-.508.333-1.09.372-1.941.039-.854.048-1.126.048-3.299 0-2.172-.01-2.445-.048-3.298zm-1.44 6.531c-.036.78-.166 1.204-.276 1.486-.269.697-.82 1.249-1.518 1.518-.282.11-.705.24-1.485.275-.844.039-1.097.047-3.233.047s-2.39-.008-3.233-.047c-.78-.035-1.203-.166-1.485-.275a2.479 2.479 0 01-.92-.599 2.479 2.479 0 01-.599-.92c-.11-.281-.24-.705-.275-1.485-.038-.843-.047-1.096-.047-3.233 0-2.136.009-2.389.047-3.232.036-.78.166-1.204.275-1.486a2.48 2.48 0 01.599-.92c.258-.266.572-.47.92-.598.282-.11.705-.24 1.485-.276.844-.038 1.097-.046 3.233-.046s2.389.008 3.233.046c.78.036 1.203.166 1.485.276.348.128.662.333.92.598.266.258.47.573.598.92.11.282.24.706.276 1.486.038.843.046 1.096.046 3.232s-.008 2.39-.046 3.233z"/><path fill="url(#paint1_linear)" d="M8 4.288a4.108 4.108 0 100 8.217 4.108 4.108 0 000-8.217zm0 6.775A2.667 2.667 0 118 5.73a2.667 2.667 0 010 5.333z"/><path fill="url(#paint2_linear)" d="M13.23 4.126a.96.96 0 11-1.92 0 .96.96 0 011.92 0z"/><defs><linearGradient id="paint0_linear" x1="1.343" x2="14.657" y1="15.053" y2="1.739" gradientUnits="userSpaceOnUse"><stop stop-color="#FFD600"/><stop offset=".5" stop-color="#FF0100"/><stop offset="1" stop-color="#D800B9"/></linearGradient><linearGradient id="paint1_linear" x1="5.094" x2="10.904" y1="11.301" y2="5.492" gradientUnits="userSpaceOnUse"><stop stop-color="#FF6400"/><stop offset=".5" stop-color="#FF0100"/><stop offset="1" stop-color="#FD0056"/></linearGradient><linearGradient id="paint2_linear" x1="11.591" x2="12.949" y1="4.805" y2="3.447" gradientUnits="userSpaceOnUse"><stop stop-color="#F30072"/><stop offset="1" stop-color="#E50097"/></linearGradient></defs></svg>