<svg width="16" height="16" viewBox="0 0 16 16" fill="none" xmlns="http://www.w3.org/2000/svg">
<path d="M8.00052 16L7.99569 15.9992H7.98281C5.4209 15.9992 3.78408 14.7805 3.62306 14.7102L0.603843 15.4986L1.41299 12.551L1.22057 12.2477C0.423495 10.9733 0 9.50551 0 7.99409C0 0.883392 8.65106 -2.67236 13.6573 2.35357C18.6515 7.32693 15.1452 16 8.00052 16Z" fill="#4CAF50"/>
<path d="M12.3803 9.98022L12.3731 10.0409C12.1308 9.91957 10.9504 9.33974 10.7306 9.25969C10.2371 9.07612 10.3764 9.23057 9.42876 10.3207C9.28787 10.4784 9.14777 10.4905 8.90865 10.3813C8.66712 10.26 7.89178 10.0053 6.97394 9.18043C6.25899 8.53754 5.77913 7.74907 5.63743 7.50647C5.40153 7.09728 5.89507 7.03906 6.34433 6.18509C6.42484 6.01527 6.38378 5.88184 6.3242 5.76135C6.26382 5.64004 5.78316 4.45129 5.58188 3.9774C5.38865 3.50514 5.18978 3.56498 5.04084 3.56498C4.57708 3.52454 4.23813 3.53101 3.93942 3.84316C2.63995 5.27776 2.96764 6.75764 4.07952 8.33132C6.26462 11.2037 7.42883 11.7326 9.55758 12.4669C10.1324 12.6505 10.6566 12.6246 11.0712 12.5648C11.5334 12.4912 12.4939 11.9817 12.6943 11.4116C12.8997 10.8415 12.8997 10.3684 12.8393 10.2592C12.7797 10.15 12.6219 10.0894 12.3803 9.98022Z" fill="#FAFAFA"/>
</svg>
